<?xml version="1.0" encoding="UTF-8"?><svg id="Layer_1" xmlns="http://www.w3.org/2000/svg" viewBox="0 0 1131.85 1285.11"><polygon points="0 0 1131.85 1.79 1024.37 1162.38 551.47 1285.11 101.96 1161.53 0 0" fill="#1b75bb" fill-rule="evenodd"/><polygon points="925.68 513.33 913.51 658.32 880.68 977.88 538.19 1046.09 538.88 1046.15 236.88 983.76 217.18 831.13 216.65 831.47 206.3 755.88 367.89 756.69 388.76 865.26 539.06 900.02 539.06 899.4 747.3 858.81 767.95 658.32 203.3 655.21 183 515.64 184 515.64 184 515.64 572.66 407.25 174 407.64 156 262.27 960 262.27 940 435.64 695.8 513.33 925.68 513.33" fill="#fff" fill-rule="evenodd"/></svg>