<?xml version="1.0" encoding="UTF-8"?><svg id="Layer_1" xmlns="http://www.w3.org/2000/svg" viewBox="0 0 1131.86 1285.11"><path d="m0,0l101.97,1161.53,485.68,123.58,436.72-122.73L1131.86,1.79,0,0Zm307.06,515.45h676.61l-34.84,480.38-362.18,111.36-.85-2.74-.53,2.17-399.43-89.56-13.43-236.33,142.05-.08,7.23,122.92,262.81,55.42h.01l227.01-69.8,11.17-231.46H191.27v-.89l-20.42.89c-.01-.13-.02-.33-.03-.59-1.26-21.68-34.17-479.23-34.17-479.23h860l-18.98,142.28H298.55l8.51,195.26Z" fill="#f05a28" fill-rule="evenodd"/></svg>