<?xml version="1.0" encoding="UTF-8"?><svg id="Layer_1" xmlns="http://www.w3.org/2000/svg" viewBox="0 0 1134.46 1288.07"><polygon points="0 0 1134.46 1.79 1026.73 1165.06 608.1 1288.07 102.2 1164.2 0 0" fill="#faaf40" fill-rule="evenodd"/><polygon points="465.99 978.65 334.5 957.87 335.4 272.25 467.33 272.42 465.99 978.65" fill="#fff" fill-rule="evenodd"/><polygon points="466.67 851.59 446.45 971.21 171.85 940.51 158.95 812.27 466.67 851.59" fill="#fff" fill-rule="evenodd"/><polygon points="945.34 272.35 927.78 405.28 599.32 402.64 599.32 272.35 945.34 272.35" fill="#fff" fill-rule="evenodd"/><rect x="599.81" y="332.23" width="131.94" height="311.59" transform="translate(-1.54 2.11) rotate(-.18)" fill="#fff"/><polygon points="927.95 553.51 919.52 685.44 599.32 686.27 599.32 553.51 927.95 553.51" fill="#fff" fill-rule="evenodd"/><polygon points="906.84 931.48 764.18 931.9 780.75 620.3 921.46 619.89 906.84 931.48" fill="#fff" fill-rule="evenodd"/><polygon points="911.51 841.11 906.53 972.97 603.22 972.97 605.38 846.57 911.51 841.11" fill="#fff" fill-rule="evenodd"/></svg>